<svg xmlns="http://www.w3.org/2000/svg" viewBox="0 0 680 460" role="img"><title>Hopfield network with symmetric recurrent connections between binary-state nodes</title><rect width="680" height="460" rx="16" fill="#141a26"/><g font-family="Segoe UI,Arial,sans-serif"><text x="340" y="46" fill="#4db8ff" font-size="23" text-anchor="middle">A RECURRENT ASSOCIATIVE MEMORY</text><path d="M485.0 223.0 L412.5 331.25317547305485" stroke="#435569" stroke-width="2" fill="none"/><path d="M485.0 223.0 L267.5 331.25317547305485" stroke="#435569" stroke-width="2" fill="none"/><path d="M485.0 223.0 L195.0 223.00000000000003" stroke="#435569" stroke-width="2" fill="none"/><path d="M485.0 223.0 L267.49999999999994 114.74682452694519" stroke="#435569" stroke-width="2" fill="none"/><path d="M485.0 223.0 L412.5 114.74682452694518" stroke="#435569" stroke-width="2" fill="none"/><path d="M412.5 331.25317547305485 L267.5 331.25317547305485" stroke="#435569" stroke-width="2" fill="none"/><path d="M412.5 331.25317547305485 L195.0 223.00000000000003" stroke="#435569" stroke-width="2" fill="none"/><path d="M412.5 331.25317547305485 L267.49999999999994 114.74682452694519" stroke="#435569" stroke-width="2" fill="none"/><path d="M412.5 331.25317547305485 L412.5 114.74682452694518" stroke="#435569" stroke-width="2" fill="none"/><path d="M267.5 331.25317547305485 L195.0 223.00000000000003" stroke="#435569" stroke-width="2" fill="none"/><path d="M267.5 331.25317547305485 L267.49999999999994 114.74682452694519" stroke="#435569" stroke-width="2" fill="none"/><path d="M267.5 331.25317547305485 L412.5 114.74682452694518" stroke="#435569" stroke-width="2" fill="none"/><path d="M195.0 223.00000000000003 L267.49999999999994 114.74682452694519" stroke="#435569" stroke-width="2" fill="none"/><path d="M195.0 223.00000000000003 L412.5 114.74682452694518" stroke="#435569" stroke-width="2" fill="none"/><path d="M267.49999999999994 114.74682452694519 L412.5 114.74682452694518" stroke="#435569" stroke-width="2" fill="none"/><circle cx="485.0" cy="223.0" r="26" fill="#141a26" stroke="#45d6c0" stroke-width="3"/><text x="485.0" y="232.0" fill="#45d6c0" font-size="22" text-anchor="middle">+1</text><circle cx="412.5" cy="331.25317547305485" r="26" fill="#141a26" stroke="#c792ea" stroke-width="3"/><text x="412.5" y="340.25317547305485" fill="#c792ea" font-size="22" text-anchor="middle">−1</text><circle cx="267.5" cy="331.25317547305485" r="26" fill="#141a26" stroke="#45d6c0" stroke-width="3"/><text x="267.5" y="340.25317547305485" fill="#45d6c0" font-size="22" text-anchor="middle">+1</text><circle cx="195.0" cy="223.00000000000003" r="26" fill="#141a26" stroke="#c792ea" stroke-width="3"/><text x="195.0" y="232.00000000000003" fill="#c792ea" font-size="22" text-anchor="middle">−1</text><circle cx="267.49999999999994" cy="114.74682452694519" r="26" fill="#141a26" stroke="#45d6c0" stroke-width="3"/><text x="267.49999999999994" y="123.74682452694519" fill="#45d6c0" font-size="22" text-anchor="middle">+1</text><circle cx="412.5" cy="114.74682452694518" r="26" fill="#141a26" stroke="#c792ea" stroke-width="3"/><text x="412.5" y="123.74682452694518" fill="#c792ea" font-size="22" text-anchor="middle">−1</text><text x="340" y="400" fill="#93a0b6" font-size="22" text-anchor="middle">Symmetric connections · no self-connections</text><text x="340" y="438" fill="#e8ecf4" font-size="23" text-anchor="middle">Iterative updates approach an attractor</text></g></svg>